<svg xmlns="http://www.w3.org/2000/svg" viewBox="0 0 258 225">
	<title>Acklen-Heart</title>
	<path fill="#71C048" d="M181.9 32.1c10.9 0 10.9 0 10.9 10.9 0 11.1 0 11.1-11.1 11.1-10.8 0-10.8 0-10.8-10.9-.1-11.1-.1-11.1 11-11.1zM164.8 43.3c0 11 0 11-10.8 11-11.1 0-11.1 0-11.1-11.1 0-11 0-11 10.8-11 11.1 0 11.1 0 11.1 11.1zM108.3 43.5c0 10.7 0 10.7-10.6 10.7-11.5 0-11.5 0-11.5-11.8 0-10.2 0-10.2 10.1-10.2h.5c11.5 0 11.5 0 11.5 11.3zM80.2 43.1c0 11.2 0 11.2-11.1 11.2-11 0-11 0-11-10.8 0-11.4 0-11.4 11.4-11.4 10.7 0 10.7 0 10.7 11z"/>
	<path fill="#71C048" d="M220.9 71.3c0 11.1 0 11.1-11.2 11.1-10.8 0-10.8 0-10.8-11 0-11.3 0-11.3 10.9-11.3 11.1 0 11.1 0 11.1 11.2zM170.9 71.3c0-11.2 0-11.2 11-11.2 10.9 0 10.9 0 10.9 10.8 0 11.5 0 11.5-11.3 11.5-10.6 0-10.6 0-10.6-11.1zM153.9 82.4c-11.1 0-11.1 0-11.1-11.2s0-11.2 11.1-11.2c10.9 0 10.9 0 10.9 10.8v.5c0 11.1 0 11.1-10.9 11.1zM136.3 71.1c0 11.1 0 11.1-11.2 11.1-10.5 0-10.5 0-10.5-10.3 0-11.9 0-11.9 11.9-11.9 9.8.1 9.8.1 9.8 11.1zM86.2 71.5c0-11.4 0-11.4 11.4-11.4 10.6 0 10.6 0 10.6 10.6 0 11.7 0 11.7-11.6 11.7-10.4 0-10.4 0-10.4-10.9zM69.1 82.3C58 82.3 58 82.3 58 71.1c0-11 0-11 11.2-11 11.1 0 11.1 0 11.1 11.1s0 11.1-11.2 11.1zM30 71.1C30 60 30 60 41.2 60 52 60 52 60 52 70.9c0 11.4 0 11.4-11.4 11.4-10.6 0-10.6 0-10.6-11.2z"/>
	<path fill="#74C24D" d="M220.9 99.4c0 11.3 0 11.3-11.4 11.3-10.5 0-10.5 0-10.5-10.8 0-11.8 0-11.8 11.9-11.8 10 0 10 0 10 10.2v1.1zM192.7 99.2c0 11.5 0 11.5-11.3 11.5-10.7 0-10.7 0-10.7-11.1 0-11.5 0-11.5 11.3-11.5 10.7.1 10.7.1 10.7 11.1zM164.8 99.4c0 11.4 0 11.4-11.5 11.4-10.6 0-10.6 0-10.6-10.7 0-11.8 0-11.8 11-11.8 11.1-.1 11.1-.1 11.1 11.1z"/>
	<path fill="#71C048" d="M136.3 99.3c0 11.4 0 11.4-11.4 11.4-10.5 0-10.5 0-10.5-10.4 0-12.2 0-12.2 12.2-12.2 9.7.1 9.7.1 9.7 11.2z"/>
	<path fill="#74C24D" d="M86.3 99.2c0-11 0-11 11.2-11 10.7 0 10.7 0 10.7 11 0 11.6 0 11.6-10.7 11.6-11.2-.1-11.2-.1-11.2-11.6z"/>
	<path fill="#71C048" d="M69.2 88.1c10.9 0 10.9 0 10.9 10.8 0 11.4 0 11.4-11.4 11.4-10.7 0-10.7 0-10.7-10.6v-.5c.1-11.1.1-11.1 11.2-11.1z"/>
	<path fill="#74C24D" d="M52.1 99.7c0 11 0 11-11.2 11-10.9 0-10.9 0-10.9-10.8 0-11.8 0-11.8 11.4-11.8 10.6 0 10.6 0 10.6 10.6.1.3.1.7.1 1z"/>
	<path fill="#74C24D" d="M192.8 128.3c0 10.6 0 10.6-10.7 10.6-11.3 0-11.3 0-11.3-11.4 0-11.1 0-11.1 10.6-11.1 11.4 0 11.4 0 11.4 11.5v.4zM164.7 127.5c0 11.3 0 11.3-11.1 11.3s-11.1 0-11.1-11.3 0-11.3 11.5-11.3c10.7 0 10.7 0 10.7 11.3z"/>
	<path fill="#71C048" d="M114.8 127.5c0-11.3 0-11.3 11-11.3 10.8 0 10.8 0 10.8 10.6 0 12 0 12-11.8 12-9.9 0-9.9 0-9.9-9.9-.1-.4-.1-.9-.1-1.4z"/>
	<path fill="#74C24D" d="M86.2 127.2c0-11 0-11 10.8-11 11.2 0 11.2 0 11.2 11.1 0 11.5 0 11.5-11.3 11.5-10.7 0-10.7 0-10.7-11.6z"/>
	<path fill="#71C048" d="M80.2 127.9c0 10.9 0 10.9-10.9 10.9-11.3 0-11.3 0-11.3-11.4 0-11.2 0-11.2 11.1-11.2s11.1 0 11.1 11.7z"/>
	<path fill="#71C048" d="M164.7 155.7c0 11.2 0 11.2-11 11.2-10.9 0-10.9 0-10.9-10.9 0-11.6 0-11.6 11.2-11.6 10.7 0 10.7 0 10.7 11.3zM136.6 155.6c0 11.3 0 11.3-11 11.3-10.8 0-10.8 0-10.8-11 0-11.5 0-11.5 11.2-11.5 10.6-.1 10.6-.1 10.6 11.2z"/>
	<path fill="#74C24D" d="M86.3 155.6c0-11.3 0-11.3 11.1-11.3 11.3 0 11.3 0 11.3 11.5 0 10.9 0 10.9-10.8 10.9h-.5c-11.1.1-11.1.1-11.1-11.1z"/>
	<path fill="#71C048" d="M114.6 183.3c0-10.7 0-10.7 10.7-10.7 11 0 11 0 11 11.3 0 10.9 0 10.9-10.9 10.9-10.8 0-10.8 0-10.8-10.6v-.9z"/>
</svg>